<?xml version="1.0" encoding="UTF-8"?>
<svg xmlns="http://www.w3.org/2000/svg" xmlns:xlink="http://www.w3.org/1999/xlink" width="25pt" height="25pt" viewBox="0 0 25 25" version="1.1">
<g id="surface1">
<path style=" stroke:none;fill-rule:nonzero;fill:rgb(0%,0%,0%);fill-opacity:1;" d="M 7.597656 9.277344 L 7.597656 8.207031 C 6.527344 7.492188 5.8125 6.246094 5.8125 4.90625 C 5.8125 2.675781 7.597656 0.890625 9.828125 0.890625 C 12.058594 0.890625 13.84375 2.675781 13.84375 4.90625 C 13.84375 5.707031 13.574219 6.511719 13.128906 7.136719 C 13.21875 7.136719 13.308594 7.136719 13.394531 7.136719 C 13.664062 7.136719 13.929688 7.136719 14.109375 7.226562 C 14.464844 6.511719 14.734375 5.707031 14.734375 4.90625 C 14.734375 2.230469 12.503906 0 9.828125 0 C 7.152344 0 4.921875 2.230469 4.921875 4.90625 C 4.921875 6.78125 5.992188 8.472656 7.597656 9.277344 Z M 7.597656 9.277344 "/>
<path style=" stroke:none;fill-rule:nonzero;fill:rgb(0%,0%,0%);fill-opacity:1;" d="M 12.949219 4.90625 C 12.949219 3.210938 11.523438 1.785156 9.828125 1.785156 C 8.132812 1.785156 6.707031 3.210938 6.707031 4.90625 C 6.707031 5.796875 7.0625 6.511719 7.597656 7.046875 L 7.597656 4.90625 C 7.597656 3.65625 8.578125 2.675781 9.828125 2.675781 C 11.078125 2.675781 12.058594 3.65625 12.058594 4.90625 L 12.058594 7.046875 C 12.59375 6.511719 12.949219 5.796875 12.949219 4.90625 Z M 12.949219 4.90625 "/>
<path style=" stroke:none;fill-rule:nonzero;fill:rgb(0%,0%,0%);fill-opacity:1;" d="M 20.53125 9.8125 C 19.820312 9.8125 19.195312 10.4375 19.195312 11.148438 L 19.195312 13.378906 L 18.300781 13.378906 L 18.300781 10.257812 C 18.300781 9.542969 17.679688 8.921875 16.964844 8.921875 C 16.25 8.921875 15.625 9.542969 15.625 10.257812 L 15.625 12.488281 L 14.734375 12.488281 L 14.734375 9.367188 C 14.734375 8.652344 14.109375 8.027344 13.394531 8.027344 C 12.683594 8.027344 12.058594 8.652344 12.058594 9.367188 L 12.058594 13.378906 L 11.167969 13.378906 L 11.167969 4.90625 C 11.167969 4.191406 10.542969 3.566406 9.828125 3.566406 C 9.113281 3.566406 8.488281 4.191406 8.488281 4.90625 L 8.488281 14.09375 C 6.617188 12.132812 4.207031 9.992188 3.226562 10.972656 C 2.246094 11.953125 4.832031 14.628906 8.3125 20.515625 C 9.917969 23.191406 11.878906 24.976562 15.269531 24.976562 C 18.925781 24.976562 21.960938 21.945312 21.960938 18.285156 L 21.960938 11.148438 C 21.871094 10.4375 21.246094 9.8125 20.53125 9.8125 Z M 20.53125 9.8125 "/>
</g>
</svg>
